<svg width="18" height="17" viewBox="0 0 18 17" fill="none" xmlns="http://www.w3.org/2000/svg">
<path d="M2.662 15.8651C2.66226 16.027 2.72672 16.1823 2.84125 16.2968C2.95578 16.4113 3.11103 16.4758 3.273 16.4761H4.82C4.98197 16.4758 5.13722 16.4113 5.25175 16.2968C5.36628 16.1823 5.43073 16.027 5.431 15.8651V14.4971H2.662V15.8651Z" fill="#0A3247"/>
<path d="M1.435 13.195C1.43553 13.4046 1.51903 13.6055 1.66726 13.7537C1.81549 13.9019 2.01637 13.9854 2.226 13.986H5.866C6.07562 13.9854 6.27651 13.9019 6.42474 13.7537C6.57296 13.6055 6.65647 13.4046 6.657 13.195L7.672 4.42896L1.058 9.93596L1.435 13.195Z" fill="#0A3247"/>
<path d="M7.3 2.40697e-05H0.791C0.581387 2.39022e-05 0.380344 0.0832239 0.232032 0.231349C0.0837192 0.379474 0.000264998 0.580411 0 0.790024L0.917 8.70902L7.844 2.94102L8.093 0.790024C8.093 0.686064 8.07251 0.583124 8.03269 0.48709C7.99288 0.391057 7.93453 0.303813 7.86097 0.230349C7.78741 0.156885 7.70009 0.0986407 7.60401 0.0589481C7.50793 0.0192555 7.40496 -0.00110736 7.301 -0.00097593L7.3 2.40697e-05Z" fill="#0A3247"/>
<path d="M15.238 7.06514C15.238 6.86119 15.157 6.66559 15.0128 6.52138C14.8685 6.37716 14.673 6.29614 14.469 6.29614H12.569C12.365 6.29614 12.1694 6.37716 12.0252 6.52138C11.881 6.66559 11.8 6.86119 11.8 7.06514V8.80714H15.243L15.238 7.06514Z" fill="#0A3247"/>
<path d="M16.269 9.343C16.1779 9.33008 16.086 9.3234 15.994 9.323H11.038C10.5081 9.32458 10.0003 9.5358 9.62554 9.91053C9.25081 10.2853 9.03958 10.7931 9.038 11.323V14.984C9.038 15.2466 9.08973 15.5067 9.19024 15.7494C9.29075 15.992 9.43807 16.2125 9.62379 16.3982C9.80951 16.5839 10.03 16.7312 10.2726 16.8318C10.5153 16.9323 10.7754 16.984 11.038 16.984H15.994C16.2571 16.9847 16.5177 16.9334 16.7609 16.8332C17.0041 16.733 17.2252 16.5858 17.4114 16.4C17.5977 16.2142 17.7455 15.9935 17.8463 15.7505C17.9471 15.5075 17.999 15.2471 17.999 14.984V11.324C17.9998 10.8396 17.8247 10.3714 17.5064 10.0063C17.188 9.64127 16.748 9.40415 16.268 9.339L16.269 9.343ZM13.516 14.743C13.2031 14.743 12.8972 14.6502 12.6371 14.4764C12.3769 14.3026 12.1742 14.0555 12.0544 13.7664C11.9347 13.4773 11.9034 13.1592 11.9644 12.8524C12.0254 12.5455 12.1761 12.2636 12.3974 12.0424C12.6186 11.8211 12.9005 11.6704 13.2074 11.6094C13.5142 11.5484 13.8323 11.5797 14.1214 11.6994C14.4105 11.8192 14.6576 12.0219 14.8314 12.2821C15.0052 12.5422 15.098 12.8481 15.098 13.161C15.098 13.3687 15.0571 13.5745 14.9776 13.7664C14.8981 13.9583 14.7815 14.1327 14.6346 14.2796C14.4877 14.4265 14.3133 14.5431 14.1214 14.6226C13.9295 14.7021 13.7238 14.743 13.516 14.743Z" fill="#0A3247"/>
</svg>
