<svg width="17" height="18" viewBox="0 0 17 18" fill="none" xmlns="http://www.w3.org/2000/svg">
<path d="M12.405 0.7C11.5344 0.701057 10.6931 1.01454 10.0341 1.58345C9.37508 2.15235 8.94214 2.93888 8.814 3.8H4.4L0.811001 0L0.0430005 0.723L2.943 3.807H-0.000999451L6.261 10.825V16.946H3.327V18H10.357V16.946H7.32V10.824L10.411 7.364C10.8833 7.67495 11.4217 7.87124 11.9833 7.93721C12.5449 8.00319 13.1141 7.93701 13.6456 7.74397C14.1771 7.55093 14.6561 7.23636 15.0444 6.82536C15.4328 6.41436 15.7197 5.9183 15.8823 5.37674C16.045 4.83518 16.0788 4.26311 15.9811 3.70616C15.8834 3.14921 15.657 2.62278 15.3198 2.16888C14.9826 1.71497 14.544 1.34614 14.0389 1.09181C13.5339 0.837477 12.9765 0.704676 12.411 0.704L12.405 0.7ZM9.817 6.442H3.771L2.358 4.863H11.228L9.817 6.442Z" fill="#0A3247"/>
</svg>
