<svg width="18" height="18" viewBox="0 0 18 18" fill="none" xmlns="http://www.w3.org/2000/svg">
<path d="M13.034 14.4649C16.014 14.3449 17.344 12.9889 17.344 11.3289C17.344 9.88689 16.344 8.67389 14.127 8.30089C14.137 7.76189 14.138 7.24689 14.138 6.76489H0C0 9.92289 0 14.5079 2.84 16.6999C1.116 16.8309 0 17.0419 0 17.2769C0 17.6769 3.163 17.9999 7.067 17.9999C10.971 17.9999 14.133 17.6769 14.133 17.2769C14.133 17.0409 13.015 16.8309 11.293 16.6999C12.0444 16.1055 12.6416 15.3389 13.034 14.4649ZM14.069 9.67489C15.312 9.96289 15.534 10.5749 15.52 11.3619C15.504 12.2619 15.244 12.8699 13.547 13.0739C13.8398 11.962 14.0144 10.8224 14.068 9.67389L14.069 9.67489ZM1.706 7.86189H3.915C2.925 10.7839 4.596 15.4039 4.595 15.4039C0.984 12.6389 1.706 7.86189 1.706 7.86189Z" fill="#0A3247"/>
<path d="M8.229 4.86095C8.51 2.31595 14.129 3.58895 12.958 0.284955C12.778 -0.215045 11.969 -0.00204509 12.15 0.506955C12.664 1.95595 10.713 2.13195 9.718 2.46495C9.13091 2.57849 8.59283 2.86954 8.17648 3.29876C7.76014 3.72798 7.48561 4.27468 7.39 4.86495C7.329 5.39895 8.164 5.39295 8.229 4.86095Z" fill="#0A3247"/>
<path d="M12.207 3.08205C11.6659 3.13742 11.151 3.3426 10.7202 3.67453C10.2893 4.00647 9.95956 4.452 9.768 4.96105C9.74463 5.06602 9.76252 5.17597 9.81796 5.26812C9.8734 5.36027 9.96216 5.42758 10.0659 5.4561C10.1695 5.48463 10.2802 5.47219 10.375 5.42136C10.4698 5.37053 10.5414 5.28521 10.575 5.18305C10.952 3.91105 12.622 3.89005 13.69 3.58305C14.2184 3.48864 14.688 3.18887 14.9961 2.74927C15.3041 2.30966 15.4256 1.76597 15.334 1.23705C15.265 0.70905 14.428 0.69805 14.497 1.23705C14.692 2.70905 13.337 2.81605 12.207 3.08205Z" fill="#0A3247"/>
</svg>
