<svg width="18" height="18" viewBox="0 0 18 18" fill="none" xmlns="http://www.w3.org/2000/svg">
<path d="M13.68 6.48191H9.835C9.91978 6.48529 10.0044 6.47151 10.0837 6.4414C10.163 6.41129 10.2354 6.36546 10.2966 6.30668C10.3578 6.24789 10.4065 6.17735 10.4397 6.09929C10.473 6.02123 10.4901 5.93726 10.4901 5.85241C10.4901 5.76757 10.473 5.6836 10.4397 5.60554C10.4065 5.52748 10.3578 5.45694 10.2966 5.39815C10.2354 5.33936 10.163 5.29354 10.0837 5.26342C10.0044 5.23331 9.91978 5.21953 9.835 5.22291H8.268C8.10539 5.22939 7.95159 5.29855 7.83883 5.4159C7.72607 5.53324 7.6631 5.68967 7.6631 5.85241C7.6631 6.01515 7.72607 6.17158 7.83883 6.28893C7.95159 6.40627 8.10539 6.47543 8.268 6.48191H4.417C3.8904 6.52162 3.39297 6.73926 3.00644 7.09908C2.6199 7.4589 2.36725 7.9395 2.29 8.46191H15.81C15.7325 7.93911 15.4793 7.45825 15.0922 7.0984C14.7051 6.73856 14.2071 6.52114 13.68 6.48191Z" fill="#0A3247"/>
<path d="M15.84 9.54401V9.36401H0V10.264H2.256V15.842C2.256 16.4149 2.48357 16.9643 2.88865 17.3694C3.29373 17.7744 3.84313 18.002 4.416 18.002H13.68C14.2529 18.002 14.8023 17.7744 15.2074 17.3694C15.6124 16.9643 15.84 16.4149 15.84 15.842V10.444H18V9.54401H15.84Z" fill="#0A3247"/>
<path d="M5.743 2.16598C5.80566 2.24828 5.87241 2.32738 5.943 2.40298L6.118 2.57798C6.23 2.68998 6.331 2.80198 6.412 2.89898C6.44795 2.94267 6.48134 2.98842 6.512 3.03598C6.53752 3.06881 6.55499 3.10717 6.563 3.14798C6.56281 3.21362 6.53863 3.27693 6.495 3.32598C6.4366 3.39689 6.36939 3.46007 6.295 3.51398C6.39343 3.55137 6.49961 3.56374 6.604 3.54998C6.73226 3.53592 6.85135 3.47673 6.94 3.38298C7.03872 3.27218 7.0969 3.13115 7.105 2.98298C7.11238 2.85643 7.09783 2.72957 7.062 2.60798C7.00058 2.40346 6.90636 2.21028 6.783 2.03598C6.72875 1.95874 6.67102 1.88399 6.61 1.81198C6.5615 1.75608 6.51641 1.69731 6.475 1.63598C6.31123 1.435 6.19623 1.19883 6.139 0.945977C6.10167 0.622486 6.15607 0.295017 6.296 0.000976562C6.08592 0.0522427 5.89431 0.161114 5.74273 0.315343C5.59115 0.469572 5.48562 0.663038 5.438 0.873977C5.38428 1.10498 5.39013 1.34585 5.455 1.57398C5.51502 1.78952 5.61288 1.99268 5.744 2.17398L5.743 2.16598Z" fill="#0A3247"/>
<path d="M8.077 2.166C8.14 2.249 8.207 2.328 8.277 2.403L8.45 2.578C8.562 2.69 8.663 2.802 8.75 2.899C8.789 2.949 8.823 2.999 8.85 3.036C8.87597 3.06844 8.89319 3.10701 8.9 3.148C8.90056 3.2136 8.87667 3.27705 8.833 3.326C8.77493 3.39722 8.70767 3.46044 8.633 3.514C8.7318 3.55132 8.83828 3.56368 8.943 3.55C9.07129 3.53603 9.1904 3.47682 9.279 3.383C9.37786 3.27229 9.43606 3.13121 9.444 2.983C9.45203 2.85657 9.43816 2.72971 9.403 2.608C9.34082 2.4036 9.24629 2.21049 9.123 2.036C9.068 1.954 8.999 1.871 8.95 1.812C8.9015 1.75611 8.85641 1.69733 8.815 1.636C8.65068 1.43386 8.53565 1.19627 8.479 0.942C8.44037 0.62006 8.49268 0.293736 8.63 0C8.42005 0.0513236 8.2286 0.160233 8.07719 0.314467C7.92578 0.468702 7.82043 0.662138 7.773 0.873C7.71896 1.10392 7.72446 1.34479 7.789 1.573C7.84894 1.78857 7.9468 1.99175 8.078 2.173L8.077 2.166Z" fill="#0A3247"/>
<path d="M10.204 2.16598C10.2665 2.2484 10.3333 2.32751 10.404 2.40298L10.579 2.57798C10.691 2.68998 10.791 2.80198 10.873 2.89898C10.909 2.94267 10.9423 2.98842 10.973 3.03598C10.9981 3.06907 11.0155 3.10732 11.024 3.14798C11.0241 3.21367 10.9999 3.27708 10.956 3.32598C10.8979 3.3972 10.8307 3.46041 10.756 3.51398C10.8545 3.55121 10.9606 3.56357 11.065 3.54998C11.1932 3.53567 11.3122 3.47652 11.401 3.38298C11.4991 3.27195 11.5565 3.13092 11.564 2.98298C11.5723 2.85654 11.5584 2.72963 11.523 2.60798C11.4618 2.40338 11.3675 2.21017 11.244 2.03598C11.1897 1.95874 11.132 1.88399 11.071 1.81198C11.0222 1.75636 10.9771 1.69757 10.936 1.63598C10.7738 1.43327 10.6609 1.19571 10.606 0.941977C10.5677 0.620367 10.62 0.294446 10.757 0.000976562C10.547 0.0521937 10.3555 0.161068 10.2041 0.31532C10.0526 0.469572 9.94732 0.663065 9.9 0.873977C9.84628 1.10498 9.85213 1.34585 9.917 1.57398C9.9767 1.78983 10.0749 1.9931 10.207 2.17398L10.204 2.16598Z" fill="#0A3247"/>
</svg>
