<svg width="17" height="18" viewBox="0 0 17 18" fill="none" xmlns="http://www.w3.org/2000/svg">
<path d="M4.313 14.9449V12.2299C4.313 12.1397 4.27718 12.0532 4.21342 11.9895C4.14965 11.9257 4.06317 11.8899 3.973 11.8899H0.331999C-0.0641629 12.9799 -0.107888 14.1667 0.206999 15.2829H3.974C4.06365 15.2826 4.14958 15.247 4.21307 15.1837C4.27656 15.1204 4.31247 15.0345 4.313 14.9449Z" fill="#0A3247"/>
<path d="M7.652 16.402L7.997 16.002C8.48219 15.3315 8.73795 14.5222 8.72624 13.6947C8.71453 12.8671 8.43597 12.0655 7.932 11.409L7.709 11.131V9.17597C7.61815 9.03125 7.5475 8.87481 7.499 8.71097C7.70536 8.60906 7.87097 8.44004 7.96864 8.23163C8.06631 8.02323 8.09026 7.78782 8.03655 7.56402C7.98283 7.34021 7.85465 7.14131 7.67303 6.99994C7.49141 6.85857 7.26714 6.78312 7.037 6.78597H2.968C2.73258 6.78592 2.50441 6.86747 2.32236 7.01674C2.1403 7.166 2.01561 7.37375 1.96951 7.60461C1.92341 7.83548 1.95874 8.07519 2.06951 8.28292C2.18027 8.49066 2.35961 8.65359 2.577 8.74397C2.40251 9.21417 2.09845 9.62537 1.7 9.92997C1.27377 10.2903 0.916045 10.7246 0.643998 11.212H3.975C4.24404 11.2133 4.50164 11.321 4.69161 11.5115C4.88157 11.702 4.98847 11.9599 4.989 12.229V14.943C4.98873 15.2129 4.88139 15.4717 4.69054 15.6625C4.49969 15.8534 4.24091 15.9607 3.971 15.961H0.461998C0.700313 16.5518 1.10656 17.0598 1.6305 17.4222C2.15444 17.7845 2.77311 17.9854 3.41 18H6.671C7.16923 17.9982 7.65946 17.8746 8.099 17.64C7.95127 17.4192 7.84269 17.1746 7.778 16.917L7.652 16.402ZM3.689 8.14697H2.967C2.88159 8.1404 2.8018 8.10184 2.7436 8.03899C2.68539 7.97614 2.65306 7.89363 2.65306 7.80797C2.65306 7.7223 2.68539 7.6398 2.7436 7.57695C2.8018 7.5141 2.88159 7.47553 2.967 7.46897H7.037C7.08371 7.46538 7.13065 7.47148 7.17489 7.48689C7.21913 7.50229 7.25971 7.52668 7.29408 7.55851C7.32845 7.59034 7.35587 7.62893 7.37462 7.67185C7.39338 7.71478 7.40306 7.76112 7.40306 7.80797C7.40306 7.85481 7.39338 7.90115 7.37462 7.94408C7.35587 7.98701 7.32845 8.0256 7.29408 8.05743C7.25971 8.08926 7.21913 8.11364 7.17489 8.12905C7.13065 8.14446 7.08371 8.15056 7.037 8.14697H3.682H3.689Z" fill="#0A3247"/>
<path d="M13.136 7.13989H16.868V14.6049H13.136V7.13989Z" fill="#0A3247"/>
<path d="M15.237 3.144L14.987 2.934C14.9427 2.89366 14.908 2.84386 14.8855 2.7883C14.863 2.73274 14.8532 2.67283 14.857 2.613C14.8618 2.53578 14.8829 2.46045 14.919 2.392H12.551C12.4656 2.38543 12.3858 2.34687 12.3276 2.28402C12.2694 2.22117 12.2371 2.13866 12.2371 2.053C12.2371 1.96734 12.2694 1.88483 12.3276 1.82198C12.3858 1.75913 12.4656 1.72057 12.551 1.714H15.437C15.4817 1.60156 15.5058 1.48198 15.508 1.361V1.018C15.5077 0.748437 15.4007 0.48996 15.2103 0.299163C15.0198 0.108365 14.7616 0.000793483 14.492 0L10.76 0C10.4901 0.000264747 10.2313 0.107603 10.0405 0.298458C9.8496 0.489312 9.74227 0.748091 9.742 1.018V1.358C9.74443 1.47906 9.76883 1.59866 9.814 1.711H11.194C11.2794 1.71757 11.3592 1.75613 11.4174 1.81898C11.4756 1.88183 11.5079 1.96434 11.5079 2.05C11.5079 2.13566 11.4756 2.21817 11.4174 2.28102C11.3592 2.34387 11.2794 2.38243 11.194 2.389H10.356C10.3932 2.45023 10.418 2.51819 10.429 2.589C10.4367 2.63938 10.4334 2.69082 10.4194 2.73982C10.4055 2.78883 10.3811 2.83425 10.348 2.873C10.3284 2.89535 10.3074 2.9164 10.285 2.936C10.208 3.002 10.127 3.069 10.044 3.136C9.54717 3.45833 9.13654 3.89707 8.84777 4.41413C8.559 4.93119 8.40084 5.51093 8.387 6.103V10.889L8.461 10.981C9.06571 11.7604 9.39797 12.7168 9.40682 13.7032C9.41567 14.6897 9.10062 15.6518 8.51 16.442L8.395 16.575L8.437 16.746C8.52335 17.0977 8.72515 17.4104 9.01013 17.6339C9.29511 17.8574 9.64682 17.9789 10.009 17.979H15.249C15.6791 17.9787 16.0915 17.8078 16.3956 17.5036C16.6998 17.1995 16.8707 16.7871 16.871 16.357V15.283H12.457V6.462H16.868V6.107C16.8558 5.51808 16.701 4.9409 16.417 4.42487C16.1329 3.90884 15.728 3.46934 15.237 3.144Z" fill="#0A3247"/>
</svg>
