<svg width="18" height="18" viewBox="0 0 18 18" fill="none" xmlns="http://www.w3.org/2000/svg">
<path d="M10.235 3.96609C10.1773 3.532 10.0235 3.11625 9.78479 2.74915C9.54606 2.38204 9.2284 2.07284 8.855 1.84409C8.327 1.60109 8.37 1.22609 8.517 0.990091C8.664 0.754091 8.927 0.759091 9.349 1.15409C10.1051 1.93644 10.5854 2.94407 10.717 4.02409L10.235 3.96609Z" fill="#0A3247" stroke="#0A3247" stroke-width="0.416" stroke-miterlimit="10"/>
<path d="M6.514 7.97602C6.50486 8.60645 6.62114 9.23242 6.85607 9.81751C7.091 10.4026 7.43991 10.9352 7.8825 11.3842C8.32509 11.8333 8.85253 12.1899 9.43416 12.4333C10.0158 12.6766 10.64 12.802 11.2705 12.802C11.901 12.802 12.5252 12.6766 13.1068 12.4333C13.6885 12.1899 14.2159 11.8333 14.6585 11.3842C15.1011 10.9352 15.45 10.4026 15.6849 9.81751C15.9199 9.23242 16.0361 8.60645 16.027 7.97602C16.027 5.34902 14.527 3.00002 11.27 3.24602C8.651 3.44302 6.503 4.90202 6.514 7.97602V7.97602Z" stroke="#0A3247" stroke-width="1.387" stroke-linecap="round" stroke-linejoin="round"/>
<path d="M6.514 7.97602C6.50486 8.60645 6.62114 9.23242 6.85607 9.81751C7.091 10.4026 7.43991 10.9352 7.8825 11.3842C8.32509 11.8333 8.85253 12.1899 9.43416 12.4333C10.0158 12.6766 10.64 12.802 11.2705 12.802C11.901 12.802 12.5252 12.6766 13.1068 12.4333C13.6885 12.1899 14.2159 11.8333 14.6585 11.3842C15.1011 10.9352 15.45 10.4026 15.6849 9.81751C15.9199 9.23242 16.0361 8.60645 16.027 7.97602C16.027 5.34902 14.527 3.00002 11.27 3.24602C8.651 3.44302 6.503 4.90202 6.514 7.97602Z" fill="#0A3247"/>
<path d="M14.731 5.04507C14.731 5.04507 16.237 6.58907 15.445 8.03807C15.158 8.56407 14.245 8.23007 14.211 7.55307C14.177 6.87607 14.461 6.28307 13.975 5.50307C13.626 4.93707 14.235 4.62507 14.731 5.04507Z" fill="white"/>
<path d="M10.834 3.41304C10.834 3.41304 11.995 -0.901957 17.303 1.36504C17.303 1.36504 14.844 5.43904 10.834 3.41304Z" fill="#0A3247" stroke="#0A3247" stroke-width="1.387" stroke-linecap="round" stroke-linejoin="round"/>
<path d="M10.834 3.41304C10.834 3.41304 11.995 -0.901957 17.303 1.36504C17.303 1.36504 14.844 5.43904 10.834 3.41304Z" fill="white"/>
<path d="M10.516 4.51299C12.0422 2.98662 14.0135 1.98414 16.146 1.64999C13.41 1.12899 10.128 3.39799 10.128 3.39799C10.128 3.39799 10.417 4.26199 10.516 4.51299Z" fill="#0A3247" stroke="#0A3247" stroke-width="0.035" stroke-linecap="round" stroke-linejoin="round"/>
<path d="M10.895 9.89601C10.627 9.01901 8.926 8.24601 6.661 8.17601C5.81449 8.09992 4.96211 8.22907 4.17614 8.55251C3.39016 8.87595 2.69377 9.38415 2.146 10.034C1.8086 10.388 1.61258 10.8533 1.595 11.342C1.71775 12.5326 2.26905 13.6379 3.14622 14.4521C4.0234 15.2664 5.16663 15.7341 6.363 15.768C9.496 15.991 10.149 14.808 10.588 13.868C11.1129 12.611 11.2205 11.2187 10.895 9.89601Z" fill="white" stroke="white" stroke-width="3.19" stroke-linecap="round" stroke-linejoin="round"/>
<path d="M10.895 9.89601C10.627 9.01901 8.926 8.24601 6.661 8.17601C5.81449 8.09992 4.96211 8.22907 4.17614 8.55251C3.39016 8.87595 2.69377 9.38415 2.146 10.034C1.8086 10.388 1.61258 10.8533 1.595 11.342V11.342C1.71775 12.5326 2.26905 13.6379 3.14622 14.4521C4.0234 15.2664 5.16663 15.7341 6.363 15.768C9.496 15.991 10.149 14.808 10.588 13.868C11.1129 12.611 11.2205 11.2187 10.895 9.89601V9.89601Z" stroke="#0A3247" stroke-width="1.387" stroke-linecap="round" stroke-linejoin="round"/>
<path d="M10.895 9.89601C10.627 9.01901 8.926 8.24601 6.661 8.17601C5.81449 8.09992 4.96211 8.22907 4.17614 8.55251C3.39016 8.87595 2.69377 9.38415 2.146 10.034C1.8086 10.388 1.61258 10.8533 1.595 11.342C1.71775 12.5326 2.26905 13.6379 3.14622 14.4521C4.0234 15.2664 5.16663 15.7341 6.363 15.768C9.496 15.991 10.149 14.808 10.588 13.868C11.1129 12.611 11.2205 11.2187 10.895 9.89601Z" fill="white" stroke="#0A3247" stroke-width="0.069" stroke-miterlimit="10"/>
<path d="M10.895 9.89601C10.627 9.01901 8.926 8.24601 6.661 8.17601C5.81449 8.09992 4.96211 8.22907 4.17614 8.55251C3.39016 8.87595 2.69377 9.38415 2.146 10.034C1.8086 10.388 1.61258 10.8533 1.595 11.342C1.71775 12.5326 2.26905 13.6379 3.14622 14.4521C4.0234 15.2664 5.16663 15.7341 6.363 15.768C9.496 15.991 10.149 14.808 10.588 13.868C11.1129 12.611 11.2205 11.2187 10.895 9.89601Z" fill="#0A3247"/>
<path d="M1.595 11.3421C1.61944 11.5731 1.66224 11.8018 1.723 12.0261C1.81338 12.146 1.91374 12.258 2.023 12.3611C3.09 13.3891 6.432 14.0841 9.196 13.3611C10.079 13.1311 10.718 12.0611 9.722 11.5101C9.583 11.4341 9.479 11.3261 9.514 11.2331C9.549 11.1401 9.603 11.1271 9.783 11.1331C10.0401 11.1596 10.2989 11.1024 10.5209 10.9699C10.7429 10.8375 10.9162 10.6369 11.015 10.3981C10.9855 10.226 10.9451 10.056 10.894 9.88906C10.622 9.01306 8.92 8.24506 6.655 8.17406C5.80849 8.09797 4.95611 8.22712 4.17014 8.55056C3.38416 8.874 2.68777 9.3822 2.14 10.0321C1.80622 10.3887 1.61265 10.8539 1.595 11.3421Z" fill="white"/>
<path d="M1.921 9.98409C1.75608 10.1385 1.62644 10.3266 1.54094 10.5357C1.45544 10.7448 1.41609 10.9699 1.42558 11.1955C1.43508 11.4212 1.49319 11.6422 1.59595 11.8434C1.69872 12.0445 1.8437 12.2211 2.021 12.3611C3.087 13.3891 6.43 14.0841 9.194 13.3611C10.077 13.1311 10.716 12.0611 9.72 11.5101C9.581 11.4341 9.477 11.3261 9.512 11.2331C9.547 11.1401 9.601 11.1271 9.781 11.1331C10.0537 11.1632 10.3285 11.0976 10.5581 10.9474C10.7878 10.7973 10.9582 10.572 11.04 10.3101C11.0841 10.0209 11.0309 9.72524 10.8888 9.46951C10.7468 9.21379 10.5238 9.01245 10.255 8.89709" stroke="#0A3247" stroke-width="0.416" stroke-linecap="round" stroke-linejoin="round"/>
<path d="M8.013 10.78C7.995 11.251 7.143 11.571 6.113 11.532C5.083 11.493 4.257 11.109 4.276 10.632C4.295 10.155 5.146 9.66901 6.176 9.70801C7.206 9.74701 8.031 10.313 8.013 10.78Z" fill="#0A3247" stroke="#0A3247" stroke-width="0.555" stroke-linecap="round" stroke-linejoin="round"/>
<path d="M9.722 12.123C9.95408 12.4108 10.1169 12.748 10.1979 13.1086C10.2789 13.4693 10.2758 13.8437 10.189 14.203C10.1839 14.7059 10.0414 15.1977 9.77708 15.6255C9.51271 16.0532 9.13646 16.4006 8.689 16.63" stroke="white" stroke-width="0.555" stroke-linecap="round" stroke-linejoin="round"/>
</svg>
