<svg width="18" height="18" viewBox="0 0 18 18" fill="none" xmlns="http://www.w3.org/2000/svg">
<path d="M-1.07288e-06 17.415H0.574999V17.995H-0.00500107L-1.07288e-06 17.415Z" fill="#0A3247"/>
<path d="M17.415 17.415H17.995V17.995H17.415V17.415Z" fill="#0A3247"/>
<path d="M13.644 9.19797C13.9141 9.19797 14.133 8.97904 14.133 8.70897C14.133 8.4389 13.9141 8.21997 13.644 8.21997C13.3739 8.21997 13.155 8.4389 13.155 8.70897C13.155 8.97904 13.3739 9.19797 13.644 9.19797Z" fill="#0A3247"/>
<path d="M8.709 9.84297V8.41797H7.284C7.34486 8.77376 7.51461 9.10189 7.76984 9.35713C8.02507 9.61236 8.35321 9.78211 8.709 9.84297Z" fill="#0A3247"/>
<path d="M4.354 12.1001C4.62407 12.1001 4.843 11.8811 4.843 11.6111C4.843 11.341 4.62407 11.1221 4.354 11.1221C4.08393 11.1221 3.865 11.341 3.865 11.6111C3.865 11.8811 4.08393 12.1001 4.354 12.1001Z" fill="#0A3247"/>
<path d="M8.709 6.41211C8.35321 6.47297 8.02507 6.64272 7.76984 6.89795C7.51461 7.15318 7.34486 7.48132 7.284 7.83711H8.709V6.41211Z" fill="#0A3247"/>
<path d="M1.742 14.5149H5.228V15.0949H1.742V14.5149Z" fill="#0A3247"/>
<path d="M12.773 14.5149H16.264V15.0949H12.773V14.5149Z" fill="#0A3247"/>
<path d="M15.677 15.676H13.355V17.418H12.775V15.676H12.195V13.934H15.681V7.27396L9.001 4.63696L2.323 7.27396V13.934H5.809V15.676H5.226V17.418H4.648V15.676H2.323V17.418H1.161V17.998H16.838V17.418H15.677V15.676ZM12.191 8.41896C12.344 8.41909 12.4955 8.38904 12.6368 8.33053C12.7782 8.27202 12.9066 8.18619 13.0147 8.07798C13.1228 7.96976 13.2086 7.84127 13.267 7.69987C13.3253 7.55847 13.3553 7.40694 13.355 7.25396H13.935C13.9353 7.56206 14.0578 7.85747 14.2756 8.07533C14.4935 8.29319 14.7889 8.4157 15.097 8.41596V8.99596C14.7894 8.99702 14.4948 9.11988 14.2776 9.33765C14.0604 9.55543 13.9383 9.85038 13.938 10.158H13.358C13.3577 9.84986 13.2352 9.55446 13.0174 9.3366C12.7995 9.11874 12.5041 8.99623 12.196 8.99596L12.191 8.41896ZM9 5.80596C9.45899 5.80715 9.90733 5.94434 10.2884 6.2002C10.6695 6.45607 10.9661 6.81913 11.141 7.24352C11.3158 7.66791 11.3609 8.1346 11.2706 8.58463C11.1804 9.03466 10.9588 9.44784 10.6338 9.77197C10.3088 10.0961 9.89506 10.3167 9.4448 10.4058C8.99454 10.4949 8.52797 10.4486 8.10403 10.2726C7.68009 10.0967 7.31779 9.79909 7.06291 9.41737C6.80803 9.03565 6.672 8.58696 6.672 8.12796C6.672 7.82253 6.73226 7.52009 6.84932 7.23798C6.96639 6.95587 7.13796 6.69963 7.35422 6.48394C7.57047 6.26824 7.82715 6.09733 8.10957 5.98099C8.39198 5.86465 8.69457 5.80517 9 5.80596ZM4.648 13.064H4.064C4.06373 12.7559 3.94123 12.4605 3.72337 12.2426C3.50551 12.0247 3.2101 11.9022 2.902 11.902V11.322C3.2101 11.3217 3.50551 11.1992 3.72337 10.9813C3.94123 10.7635 4.06373 10.4681 4.064 10.16H4.648C4.64826 10.4674 4.77022 10.7622 4.98722 10.9799C5.20421 11.1977 5.49859 11.3206 5.806 11.322V11.902C5.49859 11.9033 5.20421 12.0263 4.98722 12.244C4.77022 12.4618 4.64826 12.7566 4.648 13.064ZM11.038 17.418V13.648C11.038 13.109 10.8239 12.5922 10.4428 12.2111C10.0618 11.83 9.54492 11.616 9.006 11.616C8.46708 11.616 7.95023 11.83 7.56916 12.2111C7.18808 12.5922 6.974 13.109 6.974 13.648V17.418H6.39V13.648C6.3832 13.3006 6.44575 12.9553 6.57399 12.6324C6.70223 12.3095 6.89358 12.0154 7.13684 11.7673C7.38011 11.5193 7.67041 11.3222 7.99075 11.1877C8.3111 11.0531 8.65505 10.9838 9.0025 10.9838C9.34994 10.9838 9.6939 11.0531 10.0142 11.1877C10.3346 11.3222 10.6249 11.5193 10.8682 11.7673C11.1114 12.0154 11.3028 12.3095 11.431 12.6324C11.5592 12.9553 11.6218 13.3006 11.615 13.648V17.418H11.038ZM7.548 15.096V14.516H8.138V15.096H7.548Z" fill="#0A3247"/>
<path d="M10.714 8.41797H9.289V9.84297C9.64478 9.78211 9.97292 9.61236 10.2282 9.35713C10.4834 9.10189 10.6531 8.77376 10.714 8.41797Z" fill="#0A3247"/>
<path d="M16.924 5.47302L8.999 2.34302L1.074 5.47302C0.928285 5.52926 0.803059 5.62838 0.71486 5.75729C0.626661 5.8862 0.579637 6.03883 0.579999 6.19502C0.579076 6.32079 0.609381 6.44482 0.668198 6.556C0.727014 6.66718 0.812504 6.76202 0.916999 6.83202C1.02423 6.90604 1.14815 6.95228 1.27766 6.96659C1.40716 6.98091 1.5382 6.96284 1.659 6.91402L8.996 4.01402L16.333 6.91402C16.4538 6.96284 16.5848 6.98091 16.7143 6.96659C16.8438 6.95228 16.9678 6.90604 17.075 6.83202C17.1795 6.76202 17.265 6.66718 17.3238 6.556C17.3826 6.44482 17.4129 6.32079 17.412 6.19502C17.4118 6.03934 17.3645 5.88737 17.2763 5.75905C17.1881 5.63074 17.0632 5.53208 16.918 5.47602L16.924 5.47302Z" fill="#0A3247"/>
<path d="M9.289 6.41211V7.83711H10.714C10.6531 7.48132 10.4834 7.15318 10.2282 6.89795C9.97292 6.64272 9.64478 6.47297 9.289 6.41211Z" fill="#0A3247"/>
<path d="M16.837 1.16089H16.257C16.2567 1.46899 16.1342 1.76439 15.9164 1.98225C15.6985 2.20011 15.4031 2.32262 15.095 2.32289V2.90289C15.4031 2.90315 15.6985 3.02566 15.9164 3.24352C16.1342 3.46138 16.2567 3.75679 16.257 4.06489H16.837C16.8373 3.75679 16.9598 3.46138 17.1776 3.24352C17.3955 3.02566 17.6909 2.90315 17.999 2.90289V2.32289C17.6909 2.32262 17.3955 2.20011 17.1776 1.98225C16.9598 1.76439 16.8373 1.46899 16.837 1.16089Z" fill="#0A3247"/>
<path d="M2.903 2.902H3.483C3.48353 2.59425 3.60602 2.29925 3.82363 2.08163C4.04125 1.86402 4.33625 1.74153 4.644 1.741V1.161C4.33642 1.16021 4.04168 1.0376 3.82428 0.820015C3.60688 0.602428 3.48453 0.307581 3.484 0H2.904C2.90347 0.307927 2.78084 0.603076 2.56301 0.82072C2.34518 1.03836 2.04993 1.16074 1.742 1.161V1.741C2.04975 1.74153 2.34475 1.86402 2.56237 2.08163C2.77998 2.29925 2.90247 2.59425 2.903 2.902Z" fill="#0A3247"/>
</svg>
