<svg width="17" height="18" viewBox="0 0 17 18" fill="none" xmlns="http://www.w3.org/2000/svg">
<path fill-rule="evenodd" clip-rule="evenodd" d="M9.976 12.775C6.938 12.236 1.276 11.553 0.108 8.15397H0.116C-0.977 5.47097 5.959 -1.48403 8.663 0.283973C8.97444 0.452445 9.24061 0.693599 9.4389 0.986951C9.6372 1.2803 9.76176 1.61718 9.802 1.96897C9.86 3.80097 7.841 6.43697 5.679 8.06897C7.862 6.67597 9.941 3.95197 10.322 1.96897C11.2805 3.29696 11.8778 4.85101 12.0555 6.47907C12.2333 8.10714 11.9853 9.75346 11.336 11.257C12.448 12.336 13.836 13.509 15.071 13.31C15.2899 13.2665 15.5156 13.2703 15.7329 13.3211C15.9502 13.372 16.1541 13.4687 16.331 13.6047C16.5079 13.7408 16.6536 13.9131 16.7585 14.1101C16.8633 14.3071 16.9249 14.5242 16.939 14.747C16.9763 15.0258 16.9339 15.3094 16.8168 15.5651C16.6996 15.8208 16.5125 16.0382 16.277 16.192C16.0148 16.3537 15.7064 16.424 15.4 16.392C15.4406 16.6736 15.3905 16.9608 15.257 17.212C15.0666 17.5267 14.7749 17.7673 14.4297 17.8943C14.0845 18.0214 13.7063 18.0272 13.3574 17.9109C13.0084 17.7945 12.7094 17.563 12.5094 17.2543C12.3095 16.9455 12.2205 16.578 12.257 16.212C12.374 14.964 11.14 13.762 9.978 12.777L9.976 12.775ZM6.212 2.80697C7.195 3.44997 3.99 6.74297 3.002 6.09997C2.014 5.45697 5.228 2.16397 6.212 2.80697ZM8.302 0.935973C10.882 2.62497 3.885 10.036 1.302 8.35097C-1.281 6.66597 5.719 -0.749027 8.302 0.935973ZM11.374 12.081L9.774 11.926C10.985 12.96 13.011 14.326 12.836 16.197C12.675 17.921 15.12 17.697 14.824 16.323C14.8048 16.256 14.8034 16.1852 14.8199 16.1175C14.8365 16.0498 14.8705 15.9876 14.9185 15.9371C14.9665 15.8866 15.0268 15.8495 15.0936 15.8295C15.1603 15.8094 15.2311 15.8072 15.299 15.823C16.716 16.066 16.769 13.607 15.115 13.874C13.797 14.084 12.468 13.1 11.368 12.081H11.374Z" fill="#009E7F"/>
</svg>
