<svg width="18" height="16" viewBox="0 0 18 16" fill="none" xmlns="http://www.w3.org/2000/svg">
<path d="M11.335 8.36302H11.196C10.549 8.36226 9.91102 8.21166 9.332 7.92302L8.216 7.36502L8.227 7.34302L7.734 7.83602C7.9518 7.93536 8.13747 8.09366 8.27 8.29302C8.35026 8.41362 8.45909 8.51251 8.5868 8.5809C8.7145 8.64929 8.85713 8.68506 9.002 8.68502C9.04481 8.68502 9.0872 8.69345 9.12676 8.70983C9.16631 8.72622 9.20225 8.75023 9.23252 8.7805C9.26279 8.81077 9.2868 8.84671 9.30318 8.88626C9.31957 8.92581 9.328 8.96821 9.328 9.01102V9.65402C9.32765 9.93894 9.23284 10.2157 9.0584 10.441C8.88397 10.6663 8.63976 10.8273 8.364 10.899V11.787C8.36284 12.1352 8.25844 12.4752 8.064 12.764L7.714 13.279V14.013L8.451 13.276C8.49674 13.2334 8.55377 13.2049 8.61528 13.1937C8.6768 13.1826 8.74021 13.1895 8.79796 13.2134C8.85572 13.2373 8.90537 13.2773 8.94102 13.3287C8.97666 13.38 8.99679 13.4405 8.999 13.503V15.689L9.642 15.263V12.863C9.6423 12.8133 9.654 12.7642 9.67618 12.7197C9.69837 12.6751 9.73046 12.6362 9.77 12.606L11.027 11.662C11.3284 11.3034 11.5041 10.8559 11.527 10.388C11.5403 10.1179 11.5289 9.84709 11.493 9.57902L11.335 8.36302Z" fill="#009E7F"/>
<path d="M9.08 7.07699L9.623 7.34699C10.1129 7.59113 10.6527 7.71846 11.2 7.71899H11.256V5.79099C11.256 5.70453 11.2903 5.62161 11.3515 5.56047C11.4126 5.49933 11.4955 5.46499 11.582 5.46499H12.382C12.5098 5.46472 12.6322 5.41386 12.7225 5.32352C12.8129 5.23318 12.8637 5.11074 12.864 4.98299V4.51099H12.221C12.136 4.51046 12.0545 4.47673 11.994 4.41699L11.343 3.76599C11.2718 3.69467 11.1871 3.63823 11.0939 3.59995C11.0007 3.56166 10.9008 3.5423 10.8 3.54299H10.1C9.8886 3.54308 9.68583 3.62685 9.536 3.77599C9.26037 4.04892 9.04163 4.37383 8.89246 4.7319C8.74329 5.08997 8.66666 5.47409 8.667 5.86199V6.43499H9.067C9.13084 6.43472 9.19198 6.40925 9.23712 6.36411C9.28226 6.31897 9.30774 6.25782 9.308 6.19399V5.14899H9.951V6.19399C9.95153 6.42836 9.85908 6.65337 9.69391 6.81966C9.52875 6.98594 9.30437 7.07993 9.07 7.08099L9.08 7.07699ZM10.286 4.18299H10.929V4.82599H10.286V4.18299Z" fill="#009E7F"/>
<path d="M10.287 14.841L10.93 14.415V12.542L10.287 13.024V14.841Z" fill="#009E7F"/>
<path d="M17.794 3.684C17.6553 3.17121 17.4495 2.67896 17.182 2.22C16.8111 1.58328 16.2884 1.04823 15.6605 0.662549C15.0326 0.276869 14.3191 0.0525454 13.5834 0.00957623C12.8478 -0.0333929 12.113 0.106328 11.4445 0.416282C10.776 0.726236 10.1945 1.19679 9.752 1.786L9.259 2.437C9.22852 2.47625 9.18948 2.50801 9.14485 2.52987C9.10022 2.55172 9.05119 2.56308 9.0015 2.56308C8.95181 2.56308 8.90277 2.55172 8.85814 2.52987C8.81351 2.50801 8.77447 2.47625 8.744 2.437L8.251 1.786C7.83376 1.23265 7.29405 0.783435 6.67415 0.473574C6.05426 0.163713 5.37102 0.00161996 4.678 0L4.56 0C3.80734 0.000388626 3.06698 0.190995 2.40771 0.554112C1.74843 0.91723 1.19162 1.44108 0.788998 2.077C0.273889 2.88556 0.000174421 3.8243 -1.62679e-06 4.783V5.712C-0.00197041 6.93176 0.292208 8.13376 0.85726 9.21474C1.42231 10.2957 2.24135 11.2234 3.244 11.918L3.57 11.433C2.97303 10.9905 2.43531 10.4733 1.97 9.894L1.68 9.532C1.64465 9.46495 1.63378 9.38767 1.64924 9.31347C1.66471 9.23927 1.70555 9.17277 1.76473 9.12542C1.82392 9.07807 1.89776 9.05282 1.97355 9.05402C2.04934 9.05523 2.12234 9.0828 2.18 9.132L2.469 9.494C2.89249 10.0242 3.38137 10.4986 3.924 10.906L4.824 9.56V8.567C4.84486 8.02429 5.04775 7.50439 5.4 7.091L5.857 6.554C5.896 6.51041 5.94602 6.47812 6.0018 6.46051C6.05758 6.44291 6.11706 6.44063 6.17403 6.45393C6.23099 6.46722 6.28332 6.49559 6.32554 6.53607C6.36777 6.57655 6.39832 6.62765 6.414 6.684L6.675 7.726H6.933L8.033 6.626V5.866C8.03164 5.39394 8.12392 4.92629 8.3045 4.49013C8.48507 4.05397 8.75036 3.65795 9.085 3.325C9.35518 3.05538 9.7213 2.90397 10.103 2.904H10.803C10.9874 2.90366 11.17 2.93989 11.3403 3.01061C11.5106 3.08134 11.6651 3.18513 11.795 3.316L12.348 3.87H13.18C13.2665 3.87 13.3494 3.90435 13.4105 3.96548C13.4717 4.02662 13.506 4.10954 13.506 4.196V4.996C13.5039 5.29359 13.384 5.57825 13.1727 5.78774C12.9613 5.99724 12.6756 6.11454 12.378 6.114H11.9V7.7L12.14 9.5C12.1811 9.80684 12.1942 10.1168 12.179 10.426C12.1502 11.0066 11.9404 11.5636 11.579 12.019V13.994L14.619 11.978C15.66 11.2895 16.5138 10.3535 17.1038 9.25373C17.6939 8.15401 18.0019 6.92503 18 5.677V5.263C18.0003 4.73179 17.9304 4.20287 17.792 3.69L17.794 3.684ZM1.388 8.344C1.30708 8.37091 1.21883 8.36505 1.14219 8.32766C1.06554 8.29027 1.0066 8.22434 0.977998 8.144L0.927998 7.994C0.736904 7.42139 0.639649 6.82165 0.639998 6.218V6.109C0.632153 6.06228 0.634587 6.0144 0.647131 5.96871C0.659674 5.92303 0.682025 5.88062 0.712628 5.84445C0.74323 5.80828 0.781349 5.77922 0.82433 5.75928C0.86731 5.73935 0.91412 5.72902 0.961498 5.72902C1.00888 5.72902 1.05569 5.73935 1.09867 5.75928C1.14165 5.77922 1.17977 5.80828 1.21037 5.84445C1.24097 5.88062 1.26332 5.92303 1.27587 5.96871C1.28841 6.0144 1.29084 6.06228 1.283 6.109V6.218C1.28281 6.75231 1.36892 7.28315 1.538 7.79L1.588 7.939C1.61401 8.01953 1.60768 8.10702 1.57036 8.18297C1.53304 8.25893 1.46764 8.31739 1.388 8.346V8.344ZM16.325 9.525L16.036 9.887C15.3532 10.742 14.5144 11.4597 13.564 12.002L12.695 12.496C12.6227 12.5224 12.5434 12.5225 12.4711 12.496C12.3988 12.4696 12.3382 12.4185 12.3 12.3516C12.2618 12.2848 12.2485 12.2066 12.2624 12.1309C12.2763 12.0552 12.3165 11.9869 12.376 11.938L13.245 11.444C14.125 10.9433 14.902 10.2802 15.535 9.49L15.824 9.128C15.8474 9.08741 15.8792 9.05233 15.9173 9.02515C15.9555 8.99797 15.999 8.97933 16.045 8.9705C16.091 8.96167 16.1384 8.96285 16.1839 8.97396C16.2294 8.98507 16.272 9.00586 16.3087 9.03491C16.3454 9.06395 16.3755 9.10057 16.3968 9.14227C16.4181 9.18398 16.4302 9.22978 16.4322 9.27658C16.4342 9.32337 16.4262 9.37005 16.4085 9.41343C16.3909 9.45682 16.3641 9.49589 16.33 9.528L16.325 9.525ZM17.36 6.216C17.3602 6.81932 17.263 7.41871 17.072 7.991L17.022 8.141C16.9866 8.21 16.9277 8.26412 16.856 8.29363C16.7843 8.32314 16.7044 8.32612 16.6307 8.30203C16.557 8.27794 16.4943 8.22836 16.4538 8.16219C16.4134 8.09602 16.3978 8.01759 16.41 7.941V7.944L16.46 7.794C16.629 7.28747 16.7151 6.75698 16.715 6.223V6.114C16.7072 6.06728 16.7096 6.0194 16.7221 5.97371C16.7347 5.92803 16.757 5.88562 16.7876 5.84945C16.8182 5.81328 16.8563 5.78422 16.8993 5.76428C16.9423 5.74435 16.9891 5.73402 17.0365 5.73402C17.0839 5.73402 17.1307 5.74435 17.1737 5.76428C17.2166 5.78422 17.2548 5.81328 17.2854 5.84945C17.316 5.88562 17.3383 5.92803 17.3509 5.97371C17.3634 6.0194 17.3658 6.06728 17.358 6.114V6.223L17.36 6.216ZM17.36 4.824C17.3678 4.87072 17.3654 4.9186 17.3529 4.96429C17.3403 5.00997 17.318 5.05238 17.2874 5.08855C17.2568 5.12472 17.2186 5.15378 17.1757 5.17372C17.1327 5.19365 17.0859 5.20398 17.0385 5.20398C16.9911 5.20398 16.9443 5.19365 16.9013 5.17372C16.8583 5.15378 16.8202 5.12472 16.7896 5.08855C16.759 5.05238 16.7367 5.00997 16.7241 4.96429C16.7116 4.9186 16.7092 4.87072 16.717 4.824V4.498C16.7298 4.42196 16.7691 4.35291 16.8279 4.30311C16.8868 4.25331 16.9614 4.22598 17.0385 4.22598C17.1156 4.22598 17.1902 4.25331 17.2491 4.30311C17.3079 4.35291 17.3472 4.42196 17.36 4.498V4.824Z" fill="#009E7F"/>
<path d="M7.126 13.007L7.526 12.407C7.64954 12.2224 7.71534 12.0052 7.715 11.783V10.614C7.715 10.5276 7.74935 10.4447 7.81048 10.3835C7.87162 10.3224 7.95454 10.288 8.041 10.288C8.21145 10.2878 8.37485 10.2199 8.49538 10.0994C8.61591 9.97888 8.68373 9.81549 8.684 9.64504V9.28903C8.29681 9.2058 7.95739 8.97474 7.738 8.64504C7.67942 8.55677 7.59992 8.48438 7.50657 8.4343C7.41322 8.38422 7.30893 8.35802 7.203 8.35804H6.43C6.35855 8.35732 6.28932 8.33315 6.23294 8.28925C6.17657 8.24534 6.13619 8.18413 6.118 8.11504L5.949 7.43604L5.897 7.49704C5.6354 7.79745 5.48253 8.17717 5.463 8.57504V9.64704C5.46267 9.71035 5.4439 9.77221 5.409 9.82504L3.78 12.271L3.965 12.392L4.641 12.835L7.225 14.528L7.107 14.291C7.08493 14.2466 7.0733 14.1977 7.073 14.148V13.184C7.0741 13.1221 7.09283 13.0617 7.127 13.01L7.126 13.007ZM6.75 9.64904V9.00603H7.395V9.64904H6.75Z" fill="#009E7F"/>
<path d="M8.002 14.648C8.02425 14.6927 8.03589 14.742 8.036 14.792V15.061L8.362 15.272V14.282L8.003 14.641L8.002 14.648Z" fill="#009E7F"/>
</svg>
