<svg width="14" height="18" viewBox="0 0 14 18" fill="none" xmlns="http://www.w3.org/2000/svg">
<path d="M2.109 5.27391H12.66C12.9398 5.27391 13.2081 5.16276 13.406 4.9649C13.6038 4.76705 13.715 4.49871 13.715 4.21891C13.715 3.9391 13.6038 3.67076 13.406 3.47291C13.2081 3.27506 12.9398 3.16391 12.66 3.16391H12.56C12.44 2.86108 12.2341 2.59995 11.9676 2.41268C11.701 2.2254 11.3856 2.12016 11.06 2.10991C10.8409 1.81616 10.5628 1.57152 10.2435 1.39172C9.92417 1.21192 9.57077 1.10093 9.206 1.06591C9.02277 0.742959 8.75719 0.474367 8.43633 0.287506C8.11547 0.100645 7.7508 0.00219727 7.3795 0.00219727C7.00819 0.00219727 6.64353 0.100645 6.32267 0.287506C6.00181 0.474367 5.73623 0.742959 5.553 1.06591C5.18885 1.10159 4.83617 1.21299 4.51759 1.39294C4.19901 1.5729 3.92155 1.81745 3.703 2.11091H3.692C3.36643 2.11237 3.0493 2.21457 2.78414 2.40346C2.51897 2.59236 2.31876 2.85869 2.211 3.16591H2.111C1.97246 3.16591 1.83527 3.1932 1.70727 3.24621C1.57927 3.29923 1.46297 3.37694 1.365 3.47491C1.26704 3.57287 1.18933 3.68918 1.13631 3.81718C1.08329 3.94517 1.056 4.08236 1.056 4.22091C1.056 4.35945 1.08329 4.49664 1.13631 4.62464C1.18933 4.75264 1.26704 4.86894 1.365 4.9669C1.46297 5.06487 1.57927 5.14258 1.70727 5.1956C1.83527 5.24862 1.97246 5.27591 2.111 5.27591L2.109 5.27391Z" fill="#0A3247"/>
<path d="M7.956 15.8909L8.819 6.32886H5.946L6.808 15.8909H7.956Z" fill="#0A3247"/>
<path d="M2.884 12.8808C3.18405 12.9999 3.45293 13.1859 3.6701 13.4247C3.88726 13.6635 4.04696 13.9488 4.137 14.2588C4.69027 14.6454 5.07345 15.2302 5.207 15.8918H5.749L4.887 6.32983H2.164L2.884 12.8808Z" fill="#0A3247"/>
<path d="M12.601 6.32886H9.877L9.015 15.8909H11.074C11.2038 15.8909 11.329 15.8431 11.4257 15.7565C11.5224 15.67 11.5837 15.5508 11.598 15.4219L12.601 6.32886Z" fill="#0A3247"/>
<path d="M1.054 16.946C1.08465 16.9413 1.11502 16.9349 1.145 16.927C1.23112 17.1809 1.38055 17.4086 1.57918 17.5887C1.7778 17.7688 2.01906 17.8953 2.28015 17.9562C2.54125 18.0171 2.81356 18.0104 3.07136 17.9368C3.32917 17.8632 3.56395 17.7251 3.75353 17.5355C3.94311 17.346 4.08122 17.1112 4.15483 16.8534C4.22843 16.5956 4.23509 16.3233 4.17418 16.0622C4.11328 15.8011 3.98681 15.5598 3.80672 15.3612C3.62664 15.1626 3.3989 15.0131 3.145 14.927C3.145 14.896 3.164 14.869 3.164 14.836C3.164 14.5562 3.05285 14.2879 2.855 14.09C2.65715 13.8922 2.3888 13.781 2.109 13.781C1.8292 13.781 1.56085 13.8922 1.363 14.09C1.16515 14.2879 1.054 14.5562 1.054 14.836C0.912788 14.8317 0.772141 14.8557 0.640404 14.9068C0.508666 14.9578 0.388521 15.0348 0.287097 15.1331C0.185672 15.2315 0.105034 15.3492 0.0499657 15.4793C-0.00510214 15.6094 -0.0334778 15.7492 -0.0334778 15.8905C-0.0334778 16.0318 -0.00510214 16.1716 0.0499657 16.3017C0.105034 16.4318 0.185672 16.5495 0.287097 16.6479C0.388521 16.7462 0.508666 16.8232 0.640404 16.8743C0.772141 16.9253 0.912788 16.9494 1.054 16.945V16.946Z" fill="#0A3247"/>
</svg>
