<svg width="11" height="10" viewBox="0 0 11 10" fill="none" xmlns="http://www.w3.org/2000/svg">
<path d="M6.18622 5.00002L9.75922 1.42702C9.91622 1.27001 10.0044 1.05705 10.0044 0.835007C10.0044 0.612964 9.91622 0.40002 9.75922 0.243011C9.60221 0.0860033 9.38926 -0.00219726 9.16722 -0.00219727C8.94518 -0.00219727 8.73222 0.0860033 8.57521 0.243011L5.00221 3.81601L1.42921 0.243011C1.35147 0.165269 1.25918 0.103597 1.15761 0.0615234C1.05603 0.0194495 0.947164 -0.00219726 0.837219 -0.00219727C0.727275 -0.00219727 0.618406 0.0194495 0.51683 0.0615234C0.415255 0.103597 0.322951 0.165269 0.245209 0.243011C0.167466 0.320754 0.105795 0.413042 0.0637207 0.514618C0.0216467 0.616193 -8.55218e-09 0.725062 0 0.835007C8.55218e-09 0.944951 0.0216467 1.05382 0.0637207 1.1554C0.105795 1.25697 0.167466 1.34927 0.245209 1.42702L3.81821 5.00002L0.245209 8.57301C0.0882006 8.73002 -7.01883e-09 8.94297 0 9.16501C7.0188e-09 9.38705 0.0882006 9.60001 0.245209 9.75702C0.402217 9.91403 0.615176 10.0022 0.837219 10.0022C1.05926 10.0022 1.27221 9.91403 1.42921 9.75702L5.00221 6.18401L8.57521 9.75702C8.73222 9.91403 8.94518 10.0022 9.16722 10.0022C9.38926 10.0022 9.60221 9.91403 9.75922 9.75702C9.91622 9.60001 10.0044 9.38705 10.0044 9.16501C10.0044 8.94297 9.91622 8.73002 9.75922 8.57301L6.18622 5.00002Z" fill="black" fill-opacity="0.25"/>
</svg>
