<svg width="17" height="18" viewBox="0 0 17 18" fill="none" xmlns="http://www.w3.org/2000/svg">
<path d="M16.061 0.5H0.939003C0.689965 0.5 0.451121 0.598928 0.275024 0.775024C0.0989278 0.951121 0 1.18996 0 1.439V16.561C0 16.81 0.0989278 17.0489 0.275024 17.225C0.451121 17.4011 0.689965 17.5 0.939003 17.5H8.5V10.771H6.468V8.292H8.5V6.459C8.47557 5.99924 8.54972 5.53958 8.71746 5.11082C8.8852 4.68206 9.14267 4.29412 9.4726 3.973C9.80252 3.65188 10.1973 3.405 10.6304 3.24892C11.0636 3.09283 11.5251 3.03115 11.984 3.068C12.923 3.068 13.932 3.139 14.167 3.168V5.461H12.6C11.533 5.461 11.329 5.961 11.329 6.709V8.289H13.87L13.538 10.768H11.333V17.5H16.061C16.31 17.5 16.5489 17.4011 16.725 17.225C16.9011 17.0489 17 16.81 17 16.561V1.439C17 1.18996 16.9011 0.951121 16.725 0.775024C16.5489 0.598928 16.31 0.5 16.061 0.5Z" fill="white"/>
</svg>
