<svg width="17" height="18" viewBox="0 0 17 18" fill="none" xmlns="http://www.w3.org/2000/svg">
<path d="M16.7404 7.68991L16.6544 7.32591H8.74537V10.6739H13.4704C13.2079 11.6987 12.6094 12.6059 11.7706 13.2505C10.9318 13.8951 9.90119 14.24 8.84337 14.2299C7.46018 14.2181 6.13157 13.6887 5.11937 12.7459C4.62133 12.2555 4.22489 11.6717 3.95274 11.0278C3.6806 10.384 3.53809 9.69287 3.53338 8.99391C3.55387 7.59141 4.11108 6.2501 5.09037 5.24591C6.08944 4.30208 7.41608 3.78326 8.79038 3.79891C9.95282 3.8151 11.0703 4.25046 11.9374 5.02491L14.3164 2.65791C12.7783 1.27493 10.7848 0.506723 8.71637 0.499908C7.5915 0.477821 6.47366 0.682178 5.42936 1.10083C4.38505 1.51947 3.4356 2.14386 2.63747 2.93686C1.83935 3.72985 1.20885 4.67525 0.783478 5.71684C0.358104 6.75842 0.146542 7.87491 0.161374 8.99991C0.150758 11.1922 0.983561 13.3047 2.48737 14.8999C3.32612 15.7392 4.32467 16.4017 5.42396 16.8483C6.52325 17.2949 7.70095 17.5165 8.88738 17.4999C9.95917 17.5086 11.0215 17.2989 12.0096 16.8835C12.9977 16.4681 13.8907 15.8558 14.6344 15.0839C16.0945 13.4788 16.8843 11.3753 16.8414 9.20591C16.8474 8.69875 16.8139 8.19189 16.7414 7.68991H16.7404Z" fill="white"/>
</svg>
