<svg width="25" height="22" viewBox="0 0 25 22" fill="none" xmlns="http://www.w3.org/2000/svg">
<path d="M24.7186 18.9068C25.5198 20.2816 24.5142 22 22.9141 22H2.08569C0.482521 22 -0.518434 20.2789 0.281132 18.9068L10.6955 1.03061C11.497 -0.344781 13.5045 -0.342289 14.3046 1.03061L24.7186 18.9068ZM12.5 15.2109C11.3974 15.2109 10.5035 16.0959 10.5035 17.1875C10.5035 18.2791 11.3974 19.1641 12.5 19.1641C13.6027 19.1641 14.4965 18.2791 14.4965 17.1875C14.4965 16.0959 13.6027 15.2109 12.5 15.2109ZM10.6045 8.10623L10.9264 13.95C10.9415 14.2234 11.1699 14.4375 11.4465 14.4375H13.5535C13.8301 14.4375 14.0585 14.2234 14.0736 13.95L14.3955 8.10623C14.4118 7.81086 14.1743 7.5625 13.8755 7.5625H11.1245C10.8257 7.5625 10.5882 7.81086 10.6045 8.10623Z" fill="#E94D4A"/>
</svg>
