<svg width="110" height="18" viewBox="0 0 110 18" fill="none" xmlns="http://www.w3.org/2000/svg">
<path d="M0 0.652L2.072 0.678C3.814 0.699 5.563 0.627 7.296 0.763C8.44344 0.828614 9.53681 1.27252 10.4052 2.02534C11.2737 2.77816 11.8682 3.79748 12.096 4.924C12.281 5.64349 12.3104 6.39418 12.1822 7.12593C12.054 7.85769 11.7711 8.55366 11.3525 9.16738C10.9339 9.78109 10.3891 10.2984 9.75457 10.6848C9.12005 11.0712 8.4104 11.3177 7.673 11.408C6.53721 11.5372 5.39297 11.5764 4.251 11.525C3.858 11.525 3.765 11.649 3.769 12.025C3.788 13.725 3.777 15.431 3.777 17.134V17.668H0V0.652ZM3.832 8.321C4.302 8.321 4.732 8.338 5.15 8.321C5.74695 8.32097 6.34279 8.26978 6.931 8.168C7.37254 8.07119 7.76654 7.82354 8.04523 7.46765C8.32393 7.11176 8.46988 6.66987 8.458 6.218C8.49875 5.7828 8.39391 5.34637 8.1599 4.97718C7.9259 4.60798 7.57597 4.32689 7.165 4.178C6.07305 3.92851 4.94881 3.85125 3.833 3.949L3.832 8.321Z" fill="#0D1136"/>
<path d="M109.124 9.36C108.464 9.19329 107.774 9.18677 107.111 9.341C106.57 9.47855 106.09 9.79191 105.746 10.2319C105.402 10.6719 105.214 11.2136 105.211 11.772C105.142 13.513 105.164 15.257 105.148 16.999V17.626H101.567V5.804H105.033V7.229C105.292 6.82545 105.637 6.48391 106.043 6.22864C106.449 5.97337 106.906 5.81064 107.382 5.752C107.961 5.71015 108.543 5.7145 109.122 5.765L109.124 9.36Z" fill="#008D71"/>
<path d="M48.823 0.678H49.339C51.575 0.698 53.817 0.614 56.039 0.767C57.0569 0.778734 58.0394 1.14209 58.82 1.79547C59.6006 2.44886 60.1313 3.35207 60.322 4.352C60.5288 5.2282 60.4241 6.14906 60.026 6.9565C59.6278 7.76395 58.961 8.40761 58.14 8.777C58.1078 8.79291 58.0778 8.81309 58.051 8.837C58.5802 9.10541 59.0868 9.41608 59.566 9.766C60.2992 10.4449 60.7757 11.356 60.9149 12.3455C61.0541 13.335 60.8475 14.3422 60.33 15.197C59.9118 15.9397 59.302 16.5565 58.5641 16.9831C57.8262 17.4096 56.9873 17.6303 56.135 17.622C53.742 17.706 51.344 17.649 48.948 17.652C48.9033 17.6448 48.8596 17.632 48.818 17.614L48.823 0.678ZM52.486 14.578H54.586C54.8531 14.5821 55.1202 14.5711 55.386 14.545C55.855 14.5164 56.2975 14.3178 56.6306 13.9865C56.9638 13.6552 57.1648 13.2138 57.196 12.745C57.2527 12.2964 57.14 11.8429 56.88 11.473C56.6199 11.1031 56.2313 10.8435 55.79 10.745C54.712 10.581 53.606 10.59 52.485 10.523L52.486 14.578ZM52.486 7.478C53.245 7.478 53.974 7.497 54.702 7.469C55.02 7.45252 55.3337 7.38743 55.632 7.276C55.974 7.15437 56.2664 6.92335 56.4638 6.61873C56.6612 6.3141 56.7527 5.95287 56.724 5.591C56.7495 5.21925 56.6417 4.85057 56.42 4.55111C56.1982 4.25165 55.877 4.04102 55.514 3.957C54.527 3.797 53.514 3.798 52.486 3.728V7.478Z" fill="#008D71"/>
<path d="M38.458 9.686C39.306 8.751 40.219 7.866 40.983 6.867C41.2506 6.46272 41.6279 6.14316 42.0707 5.94583C42.5136 5.74851 43.0035 5.68161 43.483 5.753C44.508 5.853 45.549 5.774 46.691 5.774L42.057 10.756L46.791 17.656C45.491 17.656 44.272 17.626 43.054 17.67C42.8366 17.696 42.6164 17.6546 42.4232 17.5515C42.23 17.4483 42.0732 17.2882 41.974 17.093C41.21 15.879 40.391 14.7 39.558 13.454C39.158 13.89 38.777 14.29 38.42 14.712C38.349 14.796 38.362 14.964 38.361 15.094V17.63H34.794V0.358H38.348V9.658L38.458 9.686Z" fill="#0D1136"/>
<path d="M73.493 17.644H70.298L70.172 16.47C69.7972 16.8167 69.4015 17.14 68.987 17.438C67.577 18.338 64.528 18.311 63.23 16.203C62.9289 15.7241 62.7504 15.1784 62.7103 14.6141C62.6701 14.0499 62.7695 13.4844 62.9997 12.9676C63.2299 12.4509 63.5838 11.9988 64.0302 11.6513C64.4765 11.3037 65.0016 11.0715 65.559 10.975C66.628 10.717 67.73 10.591 68.816 10.405C68.908 10.389 68.999 10.372 69.091 10.358C69.2657 10.3565 69.4351 10.2985 69.5741 10.1927C69.7131 10.0869 69.8141 9.93896 69.862 9.771C69.912 9.58987 69.911 9.39842 69.8589 9.21786C69.8068 9.0373 69.7058 8.87468 69.567 8.748C69.2906 8.49484 68.9508 8.32134 68.5836 8.24597C68.2165 8.17061 67.8358 8.19619 67.482 8.32C67.1564 8.39854 66.859 8.56583 66.6228 8.80327C66.3866 9.04072 66.2208 9.33901 66.144 9.665C66.128 9.715 66.131 9.771 66.118 9.822C66.1003 9.87105 66.0792 9.91883 66.055 9.965L64.508 9.665C63.991 9.565 63.497 9.456 62.962 9.344C63.0258 8.57988 63.326 7.85462 63.821 7.269C64.5348 6.39442 65.5346 5.80012 66.644 5.591C68.0144 5.2763 69.4469 5.36804 70.766 5.855C71.5488 6.12458 72.2255 6.63628 72.6981 7.31604C73.1708 7.99579 73.4149 8.80832 73.395 9.636C73.454 11.284 73.405 12.936 73.419 14.586C73.429 15.593 73.467 16.602 73.493 17.644ZM69.883 12.468C69.46 12.531 69.063 12.568 68.676 12.653C68.0542 12.7693 67.4406 12.9256 66.839 13.121C66.39 13.282 66.282 13.721 66.291 14.18C66.2854 14.3875 66.3371 14.5925 66.4403 14.7726C66.5434 14.9527 66.6942 15.1009 66.876 15.201C67.3357 15.3951 67.8472 15.4297 68.3289 15.2994C68.8106 15.1691 69.2348 14.8814 69.534 14.482C69.8687 13.8677 69.9914 13.1601 69.883 12.469V12.468Z" fill="#008D71"/>
<path d="M98.509 17.639H95.309L95.184 16.411C95.1278 16.4479 95.0761 16.4911 95.03 16.54C93.685 18.474 90.112 18.409 88.613 16.698C88.229 16.276 87.9565 15.7648 87.8204 15.2107C87.6842 14.6566 87.6888 14.0773 87.8335 13.5254C87.9783 12.9735 88.2587 12.4666 88.6493 12.0507C89.0399 11.6348 89.5283 11.3231 90.07 11.144C91.1357 10.8655 92.216 10.6465 93.306 10.488C93.58 10.435 93.859 10.407 94.132 10.35C94.3063 10.3337 94.4718 10.2664 94.6079 10.1563C94.744 10.0463 94.8445 9.89847 94.8969 9.73148C94.9492 9.56448 94.9511 9.38574 94.9022 9.2177C94.8533 9.04967 94.7558 8.89982 94.622 8.787C94.3595 8.52922 94.0318 8.34778 93.6739 8.26216C93.3161 8.17653 92.9418 8.18996 92.591 8.301C92.2552 8.36383 91.9441 8.52094 91.6943 8.75397C91.4444 8.98701 91.266 9.28635 91.18 9.617C91.146 9.717 91.13 9.817 91.094 9.976L87.971 9.347C88.0306 8.72182 88.2391 8.12 88.5791 7.59196C88.919 7.06392 89.3806 6.62501 89.925 6.312C90.8759 5.73808 91.9575 5.41629 93.0674 5.37709C94.1774 5.33789 95.279 5.58258 96.268 6.088C96.9161 6.38767 97.4629 6.86966 97.8416 7.47507C98.2202 8.08048 98.4142 8.78308 98.4 9.497C98.464 11.078 98.421 12.664 98.437 14.248C98.453 15.36 98.485 16.478 98.509 17.639ZM94.964 12.457C94.164 12.582 93.464 12.67 92.777 12.806C92.4403 12.8722 92.1149 12.9867 91.811 13.146C91.6257 13.2547 91.4783 13.4178 91.3889 13.6132C91.2994 13.8085 91.2722 14.0267 91.311 14.238C91.314 14.4458 91.375 14.6487 91.4872 14.8236C91.5994 14.9986 91.7583 15.1386 91.946 15.228C92.2169 15.3474 92.51 15.4082 92.8061 15.4064C93.1021 15.4046 93.3944 15.3402 93.6639 15.2174C93.9333 15.0946 94.1737 14.9163 94.3693 14.6941C94.5649 14.4719 94.7114 14.2108 94.799 13.928C94.8875 13.443 94.9426 12.9525 94.964 12.46V12.457Z" fill="#008D71"/>
<path d="M32.367 9.544L29.309 10.462C29.0208 10.0163 28.683 9.60463 28.302 9.235C27.9455 8.97682 27.5304 8.8114 27.094 8.75364C26.6576 8.69589 26.2138 8.74761 25.8024 8.90415C25.391 9.06069 25.025 9.31713 24.7374 9.65036C24.4498 9.98359 24.2497 10.3831 24.155 10.813C24.0393 11.3981 24.0372 12.0001 24.149 12.586C24.2536 13.1196 24.5252 13.6061 24.9247 13.9751C25.3242 14.344 25.8308 14.5762 26.371 14.638C26.937 14.7626 27.5287 14.6868 28.0449 14.4234C28.5611 14.16 28.9698 13.7254 29.201 13.194C29.254 13.094 29.444 12.968 29.531 12.994C30.5 13.27 31.462 13.573 32.487 13.888C32.408 14.1569 32.3145 14.4212 32.207 14.68C31.7597 15.6922 31.0213 16.5484 30.0859 17.1396C29.1504 17.7308 28.0602 18.0303 26.954 18C26.1157 18.0319 25.2796 17.8957 24.4948 17.5994C23.7099 17.3032 22.9923 16.8528 22.3842 16.275C21.7762 15.6971 21.2898 15.0034 20.954 14.2347C20.6181 13.466 20.4395 12.6379 20.4286 11.7991C20.4177 10.9603 20.5748 10.1278 20.8906 9.35062C21.2065 8.57347 21.6746 7.86738 22.2675 7.27394C22.8604 6.68051 23.5661 6.21173 24.343 5.89522C25.1198 5.57871 25.9522 5.42087 26.791 5.431C27.6722 5.39989 28.5487 5.57172 29.3529 5.93324C30.1571 6.29476 30.8674 6.83629 31.429 7.516C31.9027 8.10518 32.2248 8.8015 32.367 9.544Z" fill="#0D1136"/>
<path d="M75.947 5.792H85.621C85.627 5.918 85.639 6.044 85.639 6.171C85.639 6.81 85.601 7.452 85.652 8.087C85.6695 8.30851 85.635 8.53105 85.5511 8.73681C85.4672 8.94258 85.3364 9.12586 85.169 9.272C83.597 10.899 82.046 12.546 80.488 14.186C80.4 14.279 80.319 14.378 80.181 14.537H85.7V17.637H75.8C75.79 17.487 75.774 17.346 75.774 17.205C75.774 16.473 75.796 15.74 75.764 15.005C75.7538 14.8218 75.7845 14.6386 75.8536 14.4686C75.9228 14.2986 76.0288 14.1461 76.164 14.022C77.69 12.422 79.2 10.813 80.715 9.205C80.795 9.12 80.87 9.03 80.994 8.888H75.941L75.947 5.792Z" fill="#008D71"/>
<path d="M14.485 17.626V5.805H18.052V17.626H14.485Z" fill="#0D1136"/>
<path d="M18.386 2.138C18.3861 2.41786 18.3302 2.69492 18.2217 2.95288C18.1132 3.21084 17.9542 3.44451 17.754 3.64016C17.5539 3.8358 17.3167 3.98947 17.0564 4.09214C16.796 4.19481 16.5178 4.2444 16.238 4.238C15.6812 4.22211 15.1525 3.98963 14.7644 3.58998C14.3764 3.19033 14.1595 2.65506 14.16 2.098C14.1725 1.54112 14.4015 1.01102 14.7984 0.620241C15.1954 0.22946 15.729 0.00876329 16.286 0.00500048C16.5653 0.00250188 16.8422 0.0562147 17.1003 0.162942C17.3583 0.269669 17.5923 0.427228 17.7883 0.626242C17.9842 0.825256 18.1381 1.06166 18.2408 1.32137C18.3435 1.58108 18.3928 1.85881 18.386 2.138Z" fill="#008D71"/>
</svg>
