<svg width="14" height="14" viewBox="0 0 14 14" fill="none" xmlns="http://www.w3.org/2000/svg">
<path d="M13.787 12.752L10.336 9.286C11.2193 8.28124 11.7076 6.98983 11.71 5.652C11.6808 4.12682 11.0481 2.67542 9.9506 1.61595C8.85307 0.556477 7.38026 -0.0246307 5.855 7.82777e-07C4.32974 -0.0246307 2.85693 0.556477 1.7594 1.61595C0.661878 2.67542 0.0291828 4.12682 0 5.652C0.0302278 7.17649 0.663381 8.62686 1.76079 9.68547C2.8582 10.7441 4.33042 11.3246 5.855 11.3C7.05051 11.3045 8.21953 10.948 9.209 10.277L12.686 13.769C12.829 13.9104 13.0209 13.9913 13.222 13.9951C13.4231 13.9988 13.6179 13.925 13.766 13.789C13.8371 13.7233 13.8942 13.6438 13.9339 13.5555C13.9736 13.4672 13.995 13.3718 13.997 13.275C13.999 13.1782 13.9814 13.0819 13.9453 12.9921C13.9092 12.9022 13.8554 12.8206 13.787 12.752ZM5.855 1.475C6.98239 1.4568 8.07098 1.88639 8.88211 2.66959C9.69324 3.45279 10.1607 4.52567 10.182 5.653C10.1604 6.78016 9.69287 7.85279 8.88177 8.63577C8.07067 9.41875 6.98222 9.84821 5.855 9.83C4.72744 9.84847 3.63859 9.419 2.82724 8.63577C2.01589 7.85255 1.5483 6.77951 1.527 5.652C1.54856 4.52467 2.01627 3.45189 2.82759 2.66888C3.63891 1.88586 4.72761 1.45653 5.855 1.475Z" fill="#77798C"/>
</svg>
